<svg xmlns="http://www.w3.org/2000/svg" viewBox="0 0 446.24 446.24" style="enable-background:new 0 0 446.24 446.24" xml:space="preserve" width="current" height="current"><path style="fill:#f2d59f" d="M436.24 39.66v268.37c0 8.28-6.71 15-15 15h-43.66c8.68-11.81 13.8-26.4 13.8-42.18 0-10.3-2.19-20.1-6.12-28.95l.98-.42V104.66c-16.57 0-30-13.43-30-30H90c0 16.57-13.43 30-30 30v138.37c16.57 0 30 13.43 30 30h158.64l.42.05a71.14 71.14 0 0 0-.42 7.77c0 15.78 5.12 30.37 13.8 42.18H25c-8.29 0-15-6.72-15-15V39.66c0-8.28 6.71-15 15-15h396.24c8.29 0 15 6.72 15 15z"/><path style="fill:#8ecac1" d="m376.93 323.9 37.87 65.59-41.74-8.1-13.85 40.19-39.13-67.77.92-1.6c22.85-.31 43.09-11.35 55.93-28.31z"/><path style="fill:#e6b263" d="M277.6 223.45c-15.61 11.55-26.34 29.31-28.54 49.63l-.42-.05H90c0-16.57-13.43-30-30-30V104.66c16.57 0 30-13.43 30-30h266.24c0 16.57 13.43 30 30 30v146.82l-.98.42c-11.1-24.99-36.14-42.42-65.25-42.42-15.89 0-30.56 5.19-42.41 13.97z"/><path style="fill:#ff7124" d="M262.44 323.03c-8.68-11.81-13.8-26.4-13.8-42.18 0-2.63.14-5.22.42-7.77 2.2-20.32 12.93-38.08 28.54-49.63 11.85-8.78 26.52-13.97 42.41-13.97 29.11 0 54.15 17.43 65.25 42.42a71.173 71.173 0 0 1 6.12 28.95c0 15.78-5.12 30.37-13.8 42.18-.21.3-.42.59-.65.87-12.84 16.96-33.08 28-55.93 28.31-.33.01-.66.01-.99.01-.29 0-.58 0-.86-.01-22.85-.27-43.12-11.27-55.98-28.21-.25-.32-.49-.64-.73-.97zm86.94-42.18c0-16.22-13.15-29.37-29.37-29.37s-29.37 13.15-29.37 29.37 13.15 29.37 29.37 29.37 29.37-13.15 29.37-29.37z"/><circle style="fill:#8ecac1" cx="320.01" cy="280.85" r="29.37"/><path style="fill:#8ecac1" d="m319.15 352.21.93 1.6-39.13 67.77-13.85-40.19-41.74 8.1L263.17 324c12.86 16.94 33.13 27.94 55.98 28.21z"/><g><path style="fill:#5e2a41" d="M421.24 333.03h-44.31c-5.523 0-10-4.478-10-10s4.477-10 10-10h44.31c2.757 0 5-2.243 5-5V39.66c0-2.757-2.243-5-5-5H25c-2.757 0-5 2.243-5 5v268.37c0 2.757 2.243 5 5 5h238.17c5.523 0 10 4.478 10 10s-4.477 10-10 10H25c-13.785 0-25-11.215-25-25V39.66c0-13.785 11.215-25 25-25h396.24c13.785 0 25 11.215 25 25v268.37c0 13.785-11.215 25-25 25z"/><path style="fill:#5e2a41" d="M264.28 134.29h-82.32c-5.523 0-10-4.478-10-10s4.477-10 10-10h82.32c5.523 0 10 4.478 10 10s-4.477 10-10 10zM328.12 183.87h-210c-5.523 0-10-4.477-10-10 0-5.522 4.477-10 10-10h210c5.523 0 10 4.478 10 10 0 5.523-4.477 10-10 10zM277.6 233.45H118.12c-5.523 0-10-4.478-10-10 0-5.523 4.477-10 10-10H277.6c5.523 0 10 4.477 10 10s-4.477 10-10 10z"/><path style="fill:#5e2a41" d="M248.64 283.03H90c-5.523 0-10-4.478-10-10 0-11.028-8.972-20-20-20-5.523 0-10-4.478-10-10V104.66c0-5.522 4.477-10 10-10 11.028 0 20-8.972 20-20 0-5.522 4.477-10 10-10h266.24c5.523 0 10 4.478 10 10 0 11.028 8.972 20 20 20 5.523 0 10 4.478 10 10v146.819c0 5.522-4.477 10-10 10s-10-4.478-10-10V113.394c-14.036-3.626-25.109-14.698-28.734-28.734H98.734C95.109 98.696 84.036 109.769 70 113.394v120.901c14.036 3.625 25.109 14.698 28.734 28.734H248.64c5.523 0 10 4.478 10 10 0 5.524-4.477 10.001-10 10.001zM280.953 431.58a9.998 9.998 0 0 1-9.457-6.742l-11.019-31.977-33.211 6.445a10 10 0 0 1-10.565-14.817L254.51 319c2.761-4.783 8.878-6.42 13.66-3.66 4.783 2.761 6.422 8.877 3.66 13.66l-26.843 46.494 20.208-3.921a9.996 9.996 0 0 1 11.36 6.559l6.703 19.452 29.073-50.359c2.754-4.789 8.868-6.436 13.654-3.684 4.788 2.754 6.437 8.866 3.684 13.654l-.92 1.6-39.139 67.785a10 10 0 0 1-8.657 5z"/><path style="fill:#5e2a41" d="M359.207 431.58c-3.547 0-6.86-1.887-8.658-5l-40.044-69.343c-2.776-4.774-1.157-10.896 3.618-13.672 4.775-2.777 10.895-1.157 13.671 3.617l.93 1.6 28.178 48.802 6.704-19.452a9.996 9.996 0 0 1 11.359-6.559l20.207 3.921-26.902-46.595c-2.762-4.783-1.123-10.898 3.66-13.66 4.783-2.763 10.898-1.122 13.66 3.66l37.87 65.591a10 10 0 0 1-10.565 14.817l-33.211-6.445-11.019 31.977a10 10 0 0 1-9.458 6.741z"/><path style="fill:#5e2a41" d="M320.01 362.22c-.362 0-.724-.002-1.077-.012-25.213-.328-48.418-12.027-63.69-32.11a48.415 48.415 0 0 1-.881-1.172c-10.279-13.986-15.723-30.62-15.723-48.076 0-2.979.161-5.96.479-8.86 2.431-22.452 14.29-43.08 32.533-56.578 14.065-10.421 30.789-15.932 48.358-15.932 32.14 0 61.339 18.982 74.389 48.36l.001.002c4.631 10.431 6.98 21.537 6.98 33.008 0 17.419-5.42 34.02-15.676 48.013-.239.34-.543.76-.904 1.21-15.254 20.064-38.42 31.771-63.591 32.136-.399.01-.798.011-1.198.011zm0-142.741c-13.25 0-25.857 4.151-36.457 12.006-13.771 10.189-22.718 25.741-24.551 42.671a61.448 61.448 0 0 0-.362 6.693c0 13.165 4.101 25.703 11.858 36.259.195.268.371.504.555.739l.082.105c11.532 15.191 29.076 24.032 48.133 24.258.077.001.153.002.23.005.167.006.338.003.512.004.231.001.462.001.694-.006l.16-.003c19.046-.259 36.575-9.133 48.093-24.348.082-.108.167-.216.253-.32.058-.073.117-.161.179-.249.043-.063.088-.124.133-.186 7.757-10.555 11.857-23.093 11.857-36.259 0-8.657-1.77-17.032-5.259-24.893-9.842-22.156-31.867-36.476-56.11-36.476z"/><path style="fill:#5e2a41" d="M320.01 320.22c-21.709 0-39.37-17.661-39.37-39.37 0-21.709 17.661-39.37 39.37-39.37 21.708 0 39.37 17.661 39.37 39.37 0 21.709-17.661 39.37-39.37 39.37zm0-58.741c-10.681 0-19.37 8.689-19.37 19.37s8.689 19.37 19.37 19.37c10.681 0 19.37-8.689 19.37-19.37s-8.689-19.37-19.37-19.37z"/></g></svg>